<svg xmlns="http://www.w3.org/2000/svg" width="43" height="49.994" viewBox="0 0 43 49.994">

  <g id="cross-circle" transform="translate(-62.5 -62.5)" style="isolation: isolate">
    <path id="cross-circle-2" data-name="cross-circle" d="M104.308,84.154A20.154,20.154,0,1,1,84.154,64,20.159,20.159,0,0,1,104.308,84.154Z" fill="none" stroke="#000" stroke-miterlimit="10" stroke-width="3"/>
    <path id="cross-circle-3" data-name="cross-circle" d="M104.308,84.154A20.154,20.154,0,1,1,84.154,64,20.159,20.159,0,0,1,104.308,84.154Z" fill="none" stroke="#000" stroke-miterlimit="10" stroke-width="3"/>
    <g id="cross">
      <line id="Line_1" data-name="Line 1" x1="13" y1="13" transform="translate(78 77.308)" fill="none" stroke="#000" stroke-linecap="round" stroke-linejoin="round" stroke-width="3"/>
      <line id="Line_2" data-name="Line 2" y1="13" x2="13" transform="translate(78 77.308)" fill="none" stroke="#000" stroke-linecap="round" stroke-linejoin="round" stroke-width="3"/>
    </g>
  </g>

  <g id="checkmark-circle" transform="translate(-62.5 -62.5)">
    <path id="checkmark-circle-2" data-name="checkmark-circle" d="M104.308,84.154a20.154,20.154,0,1,0-20.154,20.154A20.159,20.159,0,0,0,104.308,84.154Z" fill="none" stroke="#000" stroke-miterlimit="10" stroke-width="3"/>
    <path id="checkmark" d="M180.154,176l-14.108,16.8L160,186.077" transform="translate(-85.923 -100.243)" fill="none" stroke="#000" stroke-linecap="round" stroke-linejoin="round" stroke-width="3"/>
  </g>


  <g id="trash" transform="translate(-658.5 -417.506)">
    <g id="trash-top">
      <line id="Line_3" data-name="Line 3" x2="40" transform="translate(660 426)" stroke="#000" stroke-linecap="round" stroke-miterlimit="10" stroke-width="3"/>
      <path id="Path_5" data-name="Path 5" d="M192,55.23V50.711h0A2.7,2.7,0,0,1,194.711,48h9.037a2.7,2.7,0,0,1,2.711,2.711h0V55.23" transform="translate(480.652 371.006)" fill="none" stroke="#000" stroke-linecap="round" stroke-linejoin="round" stroke-width="3"/>
    </g>
    <g id="trash-bottom">
      <path id="Path_4" data-name="Path 4" d="M112,112l2.259,36.149a3.629,3.629,0,0,0,3.615,3.615H138.66a3.637,3.637,0,0,0,3.615-3.615L144.534,112" transform="translate(551.615 314.236)" fill="none" stroke="#000" stroke-linecap="round" stroke-linejoin="round" stroke-width="3"/>
      <line id="Line_4" data-name="Line 4" y2="25" transform="translate(680 434)" fill="none" stroke="#000" stroke-linecap="round" stroke-linejoin="round" stroke-width="3"/>
      <line id="Line_5" data-name="Line 5" x2="1" y2="25" transform="translate(672 434)" fill="none" stroke="#000" stroke-linecap="round" stroke-linejoin="round" stroke-width="3.5"/>
      <line id="Line_6" data-name="Line 6" x1="1" y2="25" transform="translate(687 434)" fill="none" stroke="#000" stroke-linecap="round" stroke-linejoin="round" stroke-width="3.2"/>
    </g>
  </g>

</svg>