<svg xmlns="http://www.w3.org/2000/svg" width="18.5" height="21.487" viewBox="0 0 18.5 21.487">
  <g id="trash-outline" transform="translate(0.626 1.75)">
    <path id="Path_2" data-name="Path 2" d="M112,112l.917,14.541A1.466,1.466,0,0,0,114.383,128h8.433a1.469,1.469,0,0,0,1.467-1.454L125.2,112" transform="translate(-110.388 -109.008)" fill="none" stroke="#000" stroke-linecap="round" stroke-linejoin="round" stroke-width="1.5"/>
    <line id="Line_5" data-name="Line 5" x2="17" transform="translate(0.124 1.987)" stroke="#000" stroke-linecap="round" stroke-miterlimit="10" stroke-width="1.5"/>
    <path id="Path_3" data-name="Path 3" d="M192,50.958V49.109h0A1.108,1.108,0,0,1,193.113,48h3.709a1.108,1.108,0,0,1,1.113,1.109h0v1.849" transform="translate(-186.832 -49)" fill="none" stroke="#000" stroke-linecap="round" stroke-linejoin="round" stroke-width="1.5"/>
    <line id="Line_6" data-name="Line 6" y2="10" transform="translate(8.124 5.987)" fill="none" stroke="#000" stroke-linecap="round" stroke-linejoin="round" stroke-width="1.5"/>
    <line id="Line_7" data-name="Line 7" x2="0.76" y2="9.095" transform="translate(4.861 6.958)" fill="none" stroke="#000" stroke-linecap="round" stroke-linejoin="round" stroke-width="1.5"/>
    <line id="Line_8" data-name="Line 8" x1="1" y2="10" transform="translate(11.124 5.987)" fill="none" stroke="#000" stroke-linecap="round" stroke-linejoin="round" stroke-width="1.5"/>
  </g>
</svg>
