<svg xmlns="http://www.w3.org/2000/svg" width="43" height="49.994" viewBox="0 0 43 49.994">
  <g id="trash" transform="translate(-658.5 -417.506)">
    <g id="trash-top">
      <line id="Line_3" data-name="Line 3" x2="40" transform="translate(660 426)" stroke="#000" stroke-linecap="round" stroke-miterlimit="10" stroke-width="3"/>
      <path id="Path_5" data-name="Path 5" d="M192,55.23V50.711h0A2.7,2.7,0,0,1,194.711,48h9.037a2.7,2.7,0,0,1,2.711,2.711h0V55.23" transform="translate(480.652 371.006)" fill="none" stroke="#000" stroke-linecap="round" stroke-linejoin="round" stroke-width="3"/>
    </g>
    <g id="trash-bottom">
      <path id="Path_4" data-name="Path 4" d="M112,112l2.259,36.149a3.629,3.629,0,0,0,3.615,3.615H138.66a3.637,3.637,0,0,0,3.615-3.615L144.534,112" transform="translate(551.615 314.236)" fill="none" stroke="#000" stroke-linecap="round" stroke-linejoin="round" stroke-width="3"/>
      <line id="Line_4" data-name="Line 4" y2="25" transform="translate(680 434)" fill="none" stroke="#000" stroke-linecap="round" stroke-linejoin="round" stroke-width="3"/>
      <line id="Line_5" data-name="Line 5" x2="1" y2="25" transform="translate(672 434)" fill="none" stroke="#000" stroke-linecap="round" stroke-linejoin="round" stroke-width="3"/>
      <line id="Line_6" data-name="Line 6" x1="1" y2="25" transform="translate(687 434)" fill="none" stroke="#000" stroke-linecap="round" stroke-linejoin="round" stroke-width="3"/>
    </g>
  </g>
</svg>
