<svg xmlns="http://www.w3.org/2000/svg" width="33.625" height="31.414" viewBox="0 0 33.625 31.414">
  <g id="alarm-outline" transform="translate(-63.07 -79)">
    <path id="Path_11" data-name="Path 11" d="M122.434,125.182a13.182,13.182,0,1,0-13.182,13.182A13.182,13.182,0,0,0,122.434,125.182Z" transform="translate(-29.364 -29.364)" fill="none" stroke="#0c506a" stroke-miterlimit="10" stroke-width="2"/>
    <path id="Path_12" data-name="Path 12" d="M70.5,80.924A3.845,3.845,0,0,0,68.019,80l-.23.007a4.082,4.082,0,0,0-3.719,4.2,3.149,3.149,0,0,0,.9,2.243.375.375,0,0,0,.267.146h.072a.266.266,0,0,0,.209-.108l5.007-4.918a.443.443,0,0,0,.128-.33A.433.433,0,0,0,70.5,80.924Z" fill="none" stroke="#0c506a" stroke-miterlimit="10" stroke-width="2"/>
    <path id="Path_13" data-name="Path 13" d="M368.215,80.924A3.845,3.845,0,0,1,370.7,80l.23.007a4.082,4.082,0,0,1,3.719,4.2,3.149,3.149,0,0,1-.9,2.243.375.375,0,0,1-.267.145h-.072a.266.266,0,0,1-.209-.108l-5.007-4.917a.443.443,0,0,1-.128-.33A.433.433,0,0,1,368.215,80.924Z" transform="translate(-278.951)" fill="none" stroke="#0c506a" stroke-miterlimit="10" stroke-width="2"/>
    <path id="Path_14" data-name="Path 14" d="M182.661,160v9.227H176.07" transform="translate(-102.773 -73.409)" fill="none" stroke="#0c506a" stroke-linecap="round" stroke-linejoin="round" stroke-width="2"/>
    <line id="Line_13" data-name="Line 13" x1="4" y1="3" transform="translate(89.834 106)" fill="none" stroke="#0c506a" stroke-linecap="round" stroke-linejoin="round" stroke-width="2"/>
    <line id="Line_14" data-name="Line 14" y1="3" x2="3" transform="translate(66.834 106)" fill="none" stroke="#0c506a" stroke-linecap="round" stroke-linejoin="round" stroke-width="2"/>
  </g>
</svg>
